# xmcd CD database file
#
# Track frame offsets:
#	150
#	21030
#	42503
#	61075
#	82420
#	103289
#	122985
#	141934
#	161440
#	180362
#	197418
#	216582
#	231767
#	252173
#	274515
#	290519
#	311597
#
# Disc length: 4440 seconds
#
# Revision: 0
# Processed by: cddbd v1.5.1PL0 Copyright (c) Steve Scherf et al.
# Submitted via: CDex 1.51
#
DISCID=fb115611
DTITLE=Los 3 grandes del merengue dominicano - Exitos 2
DYEAR=2004
DGENRE=Merengue
TTITLE0=Sergio Vargas - Ni tu ni yo
TTITLE1=Eddy Herrera - Tu eres ajena
TTITLE2=Juan Luis Guerra - El costo e' la vida
TTITLE3=Sergio Vargas - La ventanita
TTITLE4=Eddy Herrera - La bailadora
TTITLE5=Juan Luis Guerra - Guavaberry
TTITLE6=Sergio Vargas - Penas al viento
TTITLE7=Eddy Herrera - La sensual
TTITLE8=Juan Luis Guerra - Woman del callao
TTITLE9=Eddy Herrera - Voy de fiesta
TTITLE10=Sergio Vargas - Maquinolandera
TTITLE11=Juan Luis Guerra - Visa para un sueño
TTITLE12=Sergio Vargas - Eres tu
TTITLE13=Eddy Herrera - Pegame tu vicio
TTITLE14=Juan Luis Guerra - La cosquillita
TTITLE15=Sergio Vargas - Si algun dia la vez
TTITLE16=Eddy Herrera - Nuestro amor
EXTD=YEAR: 2004
EXTT0=
EXTT1=
EXTT2=
EXTT3=
EXTT4=
EXTT5=
EXTT6=
EXTT7=
EXTT8=
EXTT9=
EXTT10=
EXTT11=
EXTT12=
EXTT13=
EXTT14=
EXTT15=
EXTT16=
PLAYORDER=
